<svg width="1096" height="160" viewBox="0 0 1096 160" fill="none" xmlns="http://www.w3.org/2000/svg">
<path d="M153.02 156V148.64C138.3 147.03 135.31 144.27 127.72 124.03C112.77 84.47 98.2796 43.07 83.7895 3.05L73.6695 5.80999L26.2895 124.72C18.4695 144.5 15.4795 146.8 0.529546 148.64V156H51.3595V148.64C34.5695 146.57 33.4195 143.81 37.3295 131.39C40.0895 122.19 43.3095 113.22 46.2995 104.94H92.0696C96.2096 115.98 100.12 126.79 102.65 134.38C106.1 144.04 104.49 146.57 90.6895 148.64V156H153.02ZM88.3896 93.67H49.9795C56.4196 76.42 62.6295 58.48 69.5295 40.77H69.9895L88.3896 93.67ZM171.234 158.76C180.434 158.76 187.104 152.32 187.104 142.66C187.104 133.69 180.434 127.02 171.464 127.02C162.724 127.02 156.054 133.69 156.054 142.66C156.054 152.32 162.724 158.76 171.234 158.76ZM285.111 41.23C283.041 26.74 281.661 17.08 280.741 8.79999C274.991 6.72999 263.031 3.05 249.921 3.05C218.181 3.05 199.091 22.37 199.091 46.52C199.091 69.98 217.951 82.17 238.421 92.52C255.671 101.72 266.711 110.23 266.711 124.95C266.711 140.36 257.281 150.48 241.871 150.48C219.331 150.48 206.911 125.64 202.771 111.15L194.951 113.45C196.561 126.33 199.551 145.65 201.621 151.17C204.381 152.55 208.521 154.16 214.731 156.23C220.941 158.07 228.761 159.45 237.501 159.45C270.161 159.45 291.781 139.44 291.781 113.91C291.781 89.99 273.381 77.8 251.531 66.99C231.981 57.1 222.551 49.51 222.551 35.25C222.551 22.37 231.521 11.79 246.241 11.79C265.331 11.79 273.151 28.35 277.521 42.84L285.111 41.23ZM421.925 41.23C419.855 26.74 418.475 17.08 417.555 8.79999C411.805 6.72999 399.845 3.05 386.735 3.05C354.995 3.05 335.905 22.37 335.905 46.52C335.905 69.98 354.765 82.17 375.235 92.52C392.485 101.72 403.525 110.23 403.525 124.95C403.525 140.36 394.095 150.48 378.685 150.48C356.145 150.48 343.725 125.64 339.585 111.15L331.765 113.45C333.375 126.33 336.365 145.65 338.435 151.17C341.195 152.55 345.335 154.16 351.545 156.23C357.755 158.07 365.575 159.45 374.315 159.45C406.975 159.45 428.595 139.44 428.595 113.91C428.595 89.99 410.195 77.8 388.345 66.99C368.795 57.1 359.365 49.51 359.365 35.25C359.365 22.37 368.335 11.79 383.055 11.79C402.145 11.79 409.965 28.35 414.335 42.84L421.925 41.23ZM560.012 43.99C558.862 29.73 557.712 10.64 557.712 0.749997H552.422C548.512 5.12 545.752 6.49999 539.772 6.49999H447.772C441.332 6.49999 438.342 6.04 434.892 0.749997H429.602C429.142 12.71 427.762 28.81 426.842 44.68H434.662C437.422 33.64 439.952 26.28 443.402 22.37C446.622 18 450.992 15.7 470.082 15.7H480.202V126.33C480.202 145.42 478.132 147.03 458.122 148.64V156H529.882V148.64C508.952 147.03 506.882 145.19 506.882 126.33V15.7H519.302C534.252 15.7 539.312 17.31 543.222 21.91C546.902 25.82 549.662 32.95 552.422 44.45L560.012 43.99ZM717.754 6.49999H661.174V13.86C677.044 15.01 682.334 18.92 683.484 27.2C684.634 34.1 685.554 43.3 685.554 61.24V83.09C685.554 121.5 674.284 144.73 644.844 144.73C618.394 144.73 605.284 124.26 605.284 88.84V38.01C605.284 16.85 607.354 15.24 624.604 13.86V6.49999H559.054V13.86C576.534 15.47 578.604 16.85 578.604 38.01V93.44C578.604 120.35 584.814 137.37 598.154 147.72C608.734 156 622.764 159.22 637.254 159.22C653.354 159.22 668.764 153.7 679.344 142.89C692.454 129.09 696.364 109.54 696.364 84.01V61.24C696.364 43.3 697.054 34.33 698.204 27.43C699.124 18.92 704.644 14.78 717.754 13.86V6.49999ZM715.786 6.49999V13.86C732.576 15.47 734.646 16.62 734.646 36.4V126.1C734.646 145.65 732.576 147.26 713.716 148.64V156H771.216C799.736 156 823.426 150.02 840.446 136.91C858.156 123.34 869.196 103.1 869.196 75.27C869.196 53.65 860.456 37.09 849.186 26.28C834.466 12.25 812.386 6.49999 783.406 6.49999H715.786ZM761.556 31.11C761.556 23.52 762.246 20.07 764.086 18.23C765.926 16.62 770.986 15.24 779.956 15.24C795.596 15.24 808.246 19.15 817.906 27.66C831.476 38.24 838.836 56.87 838.836 79.41C838.836 118.97 818.136 146.57 782.716 146.57C766.616 146.57 761.556 141.28 761.556 124.49V31.11ZM937.56 156V148.64C919.85 147.03 918.01 145.65 918.01 126.1V36.4C918.01 16.85 919.85 15.47 937.56 13.86V6.49999H871.55V13.86C889.26 15.47 891.33 16.85 891.33 36.4V126.1C891.33 145.65 889.26 147.03 871.55 148.64V156H937.56ZM1019.79 3.27999C968.729 3.27999 940.209 41.92 940.209 82.17C940.209 126.33 972.639 159.45 1017.03 159.45C1059.81 159.45 1095.23 129.32 1095.23 79.64C1095.23 34.1 1060.73 3.27999 1019.79 3.27999ZM1015.19 12.48C1043.25 12.48 1064.18 39.16 1064.18 86.08C1064.18 128.86 1044.63 150.25 1021.4 150.25C990.809 150.25 971.259 117.59 971.259 76.88C971.259 35.94 991.269 12.48 1015.19 12.48Z" fill="white"/>
</svg>
