<svg width="345" height="63" viewBox="0 0 345 63" fill="none" xmlns="http://www.w3.org/2000/svg">
<path d="M79.4119 9.20297C67.2809 9.92983 53.8758 9.4706 41.9963 12.1842C29.8964 14.9482 17.8322 20.8216 7.59937 26.8148C-14.3278 39.6572 30.2238 49.9599 39.3412 51.7883C53.8513 54.6981 69.2797 55.541 84.2083 56.3332C88.7561 56.5745 93.2379 56.201 97.7815 56.2914C107.258 56.4801 116.581 58.8112 125.985 59.6487C151.916 61.9583 177.298 59.5635 203.285 58.7462C230.506 57.8902 257.62 56.3908 284.81 54.7617C301.254 53.7764 319.755 54.0057 335.158 48.1444C340.451 46.1301 344.233 39.8494 342.844 35.0499C341.657 30.9491 336.064 30.0803 331.987 28.7887C324.542 26.4303 317.898 22.6997 310.722 19.8721C294.69 13.5556 274.712 10.36 257.083 9.00539C210.008 5.38838 162.785 4.07223 115.528 2.60267C102.413 2.19483 89.9781 1.6377 76.866 2.86172C63.342 4.12419 50.2283 4.87917 36.8199 7.12572" stroke="#D8A7FF" stroke-width="3" stroke-linecap="round"/>
</svg>
